HIERARCHY
ROOT Hips
{
	OFFSET	0	0	0
	CHANNELS 6  Xposition Yposition Zposition Xrotation Yrotation Zrotation
	JOINT Spine
	{
		OFFSET	0	6.96713	1.39842
		CHANNELS 3  Xrotation Yrotation Zrotation
		JOINT Spine1
		{
			OFFSET	0	11.9256	-2.12957
			CHANNELS 3  Xrotation Yrotation Zrotation
			JOINT Spine2
			{
				OFFSET	0	9.04001	0.968953
				CHANNELS 3  Xrotation Yrotation Zrotation
				JOINT Spine3
				{
					OFFSET	0	10.8182	3.21564
					CHANNELS 3  Xrotation Yrotation Zrotation
					JOINT Spine4
					{
						OFFSET	0	16.0143	-1.63977
						CHANNELS 3  Xrotation Yrotation Zrotation
						JOINT Neck
						{
							OFFSET	0	7.64514	-5.35586
							CHANNELS 3  Xrotation Yrotation Zrotation
							JOINT Head
							{
								OFFSET	0	9.17843	-2.74714
								CHANNELS 3  Xrotation Yrotation Zrotation
								End Site
								{
									OFFSET	0	19.1448	-0.926361
								}
							}
						}
					}
					JOINT LeftShoulder
					{
						OFFSET	-4.59986	19.4642	-9.17843
						CHANNELS 3  Xrotation Yrotation Zrotation
						JOINT LeftArm
						{
							OFFSET	-10.0419	-2.74714	3.52445
							CHANNELS 3  Xrotation Yrotation Zrotation
							JOINT LeftForeArm
							{
								OFFSET	-34.0852	-1.5557	2.43296
								CHANNELS 3  Xrotation Yrotation Zrotation
								JOINT LeftHand
								{
									OFFSET	-26.9831	-1.86468	1.92602
									CHANNELS 3  Xrotation Yrotation Zrotation
									End Site
									{
										OFFSET	-9.84747	-0.680518	0.702856
									}
								}
							}
						}
					}
					JOINT RightShoulder
					{
						OFFSET	4.59986	19.4642	-9.17843
						CHANNELS 3  Xrotation Yrotation Zrotation
						JOINT RightArm
						{
							OFFSET	10.0419	-2.74714	3.52445
							CHANNELS 3  Xrotation Yrotation Zrotation
							JOINT RightForeArm
							{
								OFFSET	34.0852	-1.5557	2.43296
								CHANNELS 3  Xrotation Yrotation Zrotation
								JOINT RightHand
								{
									OFFSET	26.9831	-1.86468	1.92602
									CHANNELS 3  Xrotation Yrotation Zrotation
									End Site
									{
										OFFSET	9.84747	-0.680518	0.702856
									}
								}
							}
						}
					}
				}
			}
		}
	}
	JOINT LeftUpLeg
	{
		OFFSET	-9.46819	-3.48356	-0.699207
		CHANNELS 3  Xrotation Yrotation Zrotation
		JOINT LeftLeg
		{
			OFFSET	-2.2061	-43.2277	-0.675743
			CHANNELS 3  Xrotation Yrotation Zrotation
			JOINT LeftFoot
			{
				OFFSET	-2.15297	-39.6861	3.413
				CHANNELS 3  Xrotation Yrotation Zrotation
				JOINT LeftToeBase
				{
					OFFSET	0	-4.93976	-13.12
					CHANNELS 3  Xrotation Yrotation Zrotation
					End Site
					{
						OFFSET	0	-1.97591	-7.90362
					}
				}
			}
		}
	}
	JOINT RightUpLeg
	{
		OFFSET	9.46819	-3.48356	-0.699207
		CHANNELS 3  Xrotation Yrotation Zrotation
		JOINT RightLeg
		{
			OFFSET	2.2061	-43.2277	-0.675743
			CHANNELS 3  Xrotation Yrotation Zrotation
			JOINT RightFoot
			{
				OFFSET	2.15297	-39.6861	3.413
				CHANNELS 3  Xrotation Yrotation Zrotation
				JOINT RightToeBase
				{
					OFFSET	0	-4.93976	-13.12
					CHANNELS 3  Xrotation Yrotation Zrotation
					End Site
					{
						OFFSET	0	-1.97591	-7.90362
					}
				}
			}
		}
	}
}
MOTION
Frames: 18
Frame Time: 0.020409
 -19.5061 91.4644 -89.0247 10.7215 -26.3 4.97698 9.93111e-06 0.000732905 -0.776329 177.876 179.999 178.706 178.263 179.996 178.706 179.743 179.999 179.224 176.588 179.985 179.742 172.249 -176.734 176.951 177.678 -176.529 178.831 0.0265695 -10.737 0.0552825 173.686 -153.72 -102.396 39.5464 -23.6158 16.0579 -0 18.1898 5.1463 0.576626 28.6689 -1.25222 158.499 137.77 113.266 11.1876 16.242 -1.40457 -0 -0.35589 -11.4836 166.659 -172.744 -168.786 146.219 -162.959 -179.17 5.92961 -0.0871244 -10.4812 1.34 0 0 6.5334 10.7044 -8.38474 154.935 -172.543 179.923 12.8543 0.0535485 -4.8259 175.874 180 -180
 -19.0812 91.4957 -90.9249 10.9446 -26.455 5.12845 5.25342e-05 0.00338359 -0.889513 178.061 179.993 178.517 178.478 179.98 178.517 179.957 179.997 179.11 176.437 179.982 179.704 171.652 -176.592 177.196 177.494 -175.989 178.844 0.15508 -10.2278 0.321801 174.024 -153.794 -101.695 39.6068 -23.998 16.3845 -0 17.0683 4.92362 0.415972 28.6515 -0.903317 158.464 137.478 113.817 11.7354 17.2622 -1.75603 -0 -0.189118 -11.7672 168.806 -174.765 -168.748 143.579 -162.761 -179.158 6.01933 -0.0726661 -10.2479 1.40503 0 0 4.82561 11.1048 -8.28711 154.949 -172.353 -179.91 14.2846 0.0350024 -4.71783 175.933 180 -180
 -18.7252 91.4988 -92.6074 10.9952 -26.1426 5.0151 7.82105e-05 0.00491381 -0.911871 178.22 179.99 178.48 178.659 179.971 178.48 0.130001 0.00491381 -0.911871 176.334 179.981 179.697 171.217 -176.515 177.558 177.358 -175.506 178.892 0.194811 -9.6034 0.40286 174.219 -153.91 -100.785 39.6505 -24.3108 16.6508 -0 16.0608 4.66727 0.0913335 28.6433 -0.198333 158.345 137.177 114.078 12.2702 18.123 -2.16057 -0 -0.0229801 -11.9909 170.516 -176.469 -169.273 141.173 -162.617 -179.25 6.21655 -0.0658348 -10.0393 1.45841 0 0 3.30632 11.4993 -7.84017 155.275 -172.164 -179.929 15.5058 -0.00560709 -4.62714 175.983 180 -180
 -18.073 91.6436 -94.2815 11.0658 -25.8118 4.7905 2.35123e-05 0.00139386 -0.966404 178.473 179.997 178.389 178.918 179.992 178.389 0.316577 0.00139386 -0.966404 176.378 179.98 179.679 171.114 -176.591 178.134 177.322 -175.182 179.015 0.191672 -8.96442 0.394924 174.129 -154.283 -100.586 39.1973 -23.9446 16.1041 -0 14.821 3.93643 179.877 151.373 -179.732 158.494 136.893 114.528 12.9584 19.5456 -2.60603 -0 0.395812 -11.8019 174.15 -178.362 -169.772 138.26 -162.7 -179.316 6.79186 -0.0385703 -9.8727 1.53095 0 0 1.23725 11.8037 -7.61388 156.446 -171.974 -179.927 16.358 -0.0191284 -4.55442 176.026 180 -180
 -17.3428 91.8275 -95.7363 10.5023 -25.62 4.44643 3.30083e-05 0.00190741 -0.99142 178.721 179.996 178.348 179.2 179.989 178.348 0.58208 0.00190741 -0.991421 176.226 179.978 179.67 170.453 -176.708 178.726 177.119 -174.881 179.138 0.286031 -8.30415 0.587047 174.323 -154.731 -100.425 38.7649 -23.7544 15.7017 -0 13.4311 3.19416 179.798 151.722 -179.561 158.919 136.815 114.425 13.6042 20.5618 -2.96559 -0 0.744733 -11.3606 177.455 179.753 -170.419 136.07 -162.862 -179.615 6.26555 -0.0254526 -9.69227 1.59055 0 0 179.682 167.955 172.575 157.675 -171.768 -179.919 16.889 -0.0216186 -4.49529 176.064 180 -180
 -16.8292 91.9408 -96.9602 10.1932 -25.3486 4.13543 180 -180 178.992 178.951 -180 178.319 179.461 -179.999 178.319 0.831074 -0.000240713 -1.00847 176.079 179.977 179.665 169.819 -176.793 179.249 176.925 -174.6 179.242 0.343402 -7.98583 0.703432 174.176 -154.998 -100.437 38.3163 -23.4428 15.4029 -0 12.1412 2.55862 179.819 151.936 -179.607 159.521 136.794 114.456 14.1872 21.3202 -3.38212 -0 1.00271 -10.7685 1.00739 2.14232 8.48737 134.664 -163.229 -179.776 8.08367 0.0144872 -9.56303 1.64121 0 0 178.39 168.003 172.965 158.844 -171.525 179.876 17.2323 -0.015009 -4.45075 176.097 180 -180
 -16.4287 91.922 -97.6425 9.5555 -24.958 4.1286 180 -179.999 178.96 179.233 -179.999 178.267 179.786 -179.996 178.267 1.14652 -0.000613673 -1.03999 175.877 179.975 179.654 168.975 -176.804 179.585 176.668 -174.33 179.292 0.490393 -8.06978 1.00508 174.591 -155.085 -100.595 38.0153 -23.3693 15.1629 -0 10.8845 2.05849 179.943 151.654 -179.876 160.521 136.715 114.77 14.6188 21.4826 -3.61024 -0 1.11774 -10.0949 4.03599 3.61132 7.33039 133.99 -163.486 -179.98 9.70847 0.02212 -9.47756 1.6838 0 0 178.113 168.363 172.696 160.147 -171.128 179.705 17.3166 0.000158819 -4.41851 176.125 180 -180
 -15.3859 91.9434 -98.6497 8.86193 -24.8704 4.65534 180 -179.998 178.853 179.582 -179.995 178.088 0.165669 -0.0142766 -1.91162 1.4741 -0.00238028 -1.14697 175.771 179.972 179.619 168.339 -176.813 179.573 176.477 -174.322 179.278 0.421436 -8.49844 0.865983 174.095 -154.924 -100.8 37.595 -22.9765 14.7671 -0 9.83624 1.55643 0.0910884 28.6175 -0.197803 161.444 136.628 115.016 14.9598 21.2853 -3.74289 -0 1.20287 -9.45292 7.48151 4.44712 6.14022 133.911 -163.828 179.833 10.4513 0.0309571 -9.49076 1.71823 0 0 177.486 169.12 171.545 161.407 -170.416 179.893 17.1538 0.0585671 -4.39632 176.15 180 -180
 -14.4589 91.9696 -99.276 8.07172 -25.0472 4.90325 180 -179.999 178.75 179.938 -179.997 177.917 0.553017 -0.00822064 -2.08279 1.80354 -0.00137069 -1.24967 175.676 179.969 179.585 167.726 -176.898 179.625 176.293 -174.417 179.293 0.29904 -8.99436 0.616262 173.283 -154.828 -101.214 37.2132 -22.8986 14.3276 -0 8.49934 1.03069 0.437376 28.6254 -0.94981 162.706 136.492 115.077 15.3021 20.9264 -3.77773 -0 1.26901 -8.74411 10.368 4.27476 4.42227 134.96 -163.814 179.928 8.71324 -0.0359692 -9.46229 1.74701 0 0 177.796 170.552 170.655 162.626 -169.337 179.844 16.6308 0.0632984 -4.37591 176.171 180 -180
 -13.5817 92.0699 -100.186 7.19304 -25.4164 5.19524 7.21073e-05 0.00310015 -1.33242 0.253201 0.00619731 -2.2207 0.897131 0.0185919 -2.2207 2.09906 0.00310015 -1.33242 175.58 179.966 179.557 167.152 -177.095 179.749 176.123 -174.683 179.347 0.378809 -9.43272 0.782629 172.833 -154.791 -101.653 36.8477 -22.7568 14.0089 -0 7.10181 0.513236 0.683419 28.3012 -1.48435 163.888 136.435 114.847 15.6881 20.7374 -3.88009 -0 1.49391 -8.16221 12.7888 3.99324 2.97786 136.047 -164.021 179.979 7.76494 -0.0449157 -9.44579 1.77357 0 0 178.15 171.899 169.873 163.774 -168.24 179.977 15.9021 0.0241443 -4.35188 176.19 180 -180
 -12.8502 92.1074 -100.933 6.40861 -25.5948 5.63989 0.000117398 0.00473123 -1.42141 0.522182 0.00945728 -2.36902 1.1874 0.0283718 -2.36902 2.34129 0.00473123 -1.42141 175.523 179.963 179.528 166.729 -177.281 179.798 175.998 -174.987 179.388 0.448204 -9.89432 0.928405 172.01 -154.761 -102.012 36.3665 -22.3416 13.5406 -0 5.92217 0.0356456 0.865317 28.1137 -1.87961 164.923 136.489 115.195 16.0415 20.5944 -3.96309 -0 1.70586 -7.62678 15.2394 3.23869 1.74094 137.745 -164.22 179.837 6.95826 -0.00125647 -9.43894 1.7955 0 0 178.113 172.783 169.158 164.736 -167.271 -179.843 15.5857 0.0179319 -4.33299 176.206 180 -180
 -12.1267 92.3578 -102.204 5.63397 -24.9589 6.17774 0.000123924 0.0048129 -1.47494 0.932334 0.00962013 -2.45823 1.51153 0.0288604 -2.45823 2.35652 0.0048129 -1.47494 176.262 179.968 179.509 168.442 -178.099 179.777 176.524 -176.594 179.578 0.62445 -10.4485 1.29743 171.629 -154.728 -102.466 35.86 -21.8367 13.03 -0 4.91589 -0.36304 0.946069 27.9848 -2.05512 165.583 136.535 115.347 16.3406 20.5118 -4.07164 -0 1.97323 -7.25 17.4414 1.72379 0.452493 139.188 -164.643 179.47 5.033 0.0380808 -9.53993 1.81398 0 0 177.61 173.168 168.358 166.019 -166.573 -179.875 14.4319 0.00912158 -4.33032 176.22 180 -180
 -11.3629 91.9327 -102.806 4.48604 -26.1019 6.02013 180 -179.988 178.429 1.29165 -0.0248651 -2.61846 1.94731 -0.0745954 -2.61846 2.83534 -0.0124409 -1.57107 175.826 179.962 179.478 166.843 -178.625 179.282 176.05 -177.866 179.573 0.628715 -11.4736 1.31321 170.504 -154.388 -103.189 35.347 -21.2701 12.4992 -0 3.89202 -0.461837 1.05706 27.4427 -2.29645 166.18 136.678 116.036 16.7715 21.2809 -4.46165 -0 2.68349 -6.79005 20.0784 -0.0567183 -0.0370009 142.058 -164.504 179.822 4.22272 -0.0209514 -9.59239 1.82858 0 0 177.476 173.292 167.764 167.156 -165.736 -179.61 16.0971 0.140987 -4.19143 176.235 180 -180
 -10.9783 91.6836 -103.699 3.78837 -27.234 6.32413 180 -179.989 178.35 1.5936 -0.0219096 -2.75001 2.30558 -0.0657288 -2.75001 3.20504 -0.0109629 -1.65001 175.533 179.957 179.452 165.717 -179.141 179.029 175.715 -178.96 179.626 0.729443 -12.1571 1.52874 169.347 -154.072 -103.248 35.0084 -21.1035 12.1044 -0 2.94144 -0.489253 1.08971 26.9556 -2.36733 166.992 136.767 116.366 17.2377 22.2383 -4.93831 -0 3.37558 -6.46101 22.2446 -1.69577 -0.600393 144.363 -164.458 179.776 2.08624 0.0156266 -9.60842 1.84117 0 0 177.151 173.487 167.428 168.048 -164.681 -179.653 16.7576 0.134759 -4.01799 176.248 180 -180
 -10.2724 91.5449 -104.73 3.07753 -27.8881 6.5008 180 -179.995 178.285 1.85842 -0.00970334 -2.85802 2.59446 -0.02911 -2.85802 3.45015 -0.00485554 -1.71481 175.461 179.955 179.43 165.257 -179.676 178.933 175.578 179.981 179.722 0.691673 -12.7289 1.45344 167.883 -153.782 -103.328 34.7278 -20.9343 11.9154 -0 2.1053 -0.483212 1.16935 26.599 -2.54027 167.815 136.678 115.94 17.7198 23.2461 -5.43122 -0 3.98382 -6.21857 23.9072 -3.33915 -1.03239 146.693 -164.512 179.665 179.666 179.969 170.417 1.85087 0 0 176.956 173.714 167.038 168.531 -163.676 -179.77 17.0397 0.0864762 -3.85066 176.259 180 -180
 -9.63016 91.4379 -105.976 2.46918 -28.6905 6.61238 180 -179.995 178.22 2.10288 -0.0108499 -2.96607 2.82261 -0.0325497 -2.96607 3.5647 -0.0054296 -1.77964 175.655 179.955 179.408 165.581 179.794 179.146 175.674 179.089 179.88 0.707491 -13.1766 1.48968 166.916 -153.602 -103.331 34.4768 -20.816 11.5825 -0 1.41044 -0.488196 1.19525 26.279 -2.59631 168.31 136.669 115.625 18.1587 23.9174 -5.77656 -0 4.42854 -5.88141 25.3406 -4.72894 -1.50322 149.688 -164.723 179.642 176.547 179.972 170.543 1.85842 0 0 176.485 173.494 166.759 168.62 -162.836 -179.743 17.3004 0.0986839 -3.7055 176.271 180 -180
 -9.2942 91.2886 -107.27 1.63638 -29.2636 6.5448 180 -179.995 178.114 2.31964 -0.00931938 -3.14359 3.02968 -0.0279581 -3.14359 3.6798 -0.00466418 -1.88615 175.796 179.954 179.373 165.778 179.504 179.113 175.732 178.512 179.936 0.818182 -13.5553 1.72567 166.194 -153.389 -103.075 34.2368 -20.6788 11.4706 -0 0.767216 -0.477146 1.19505 26.0042 -2.59562 168.58 136.791 115.583 18.5361 24.3253 -6.02797 -0 4.84261 -5.40334 26.4224 -5.80487 -1.21558 152.535 -165.1 179.891 174.212 179.986 170.764 1.86472 0 0 176.682 173.37 166.534 168.354 -162.181 -179.724 17.6623 0.0753724 -3.55564 176.283 180 -180
 -9.24453 91.1167 -108.359 0.810053 -29.4812 6.38172 1.92633e-05 0.000551914 -1.99897 2.51947 0.00110263 -3.33162 3.22107 0.0033079 -3.33162 3.78403 0.000551914 -1.99897 175.93 179.953 179.335 165.972 179.279 179.451 175.789 178.29 -179.951 0.893068 -14.2952 1.88952 165.864 -153.064 -103.029 34.081 -20.7465 11.4602 -0 0.198065 -0.283229 1.03263 25.6262 -2.24227 169.132 137.019 115.917 19.057 25.2663 -6.54598 -0 5.3916 -4.8405 27.2616 -6.69967 -1.23245 156.189 -165.578 179.733 171.103 179.975 171.146 1.86983 0 0 177.042 172.938 166.645 168.053 -161.664 -179.706 18.1942 0.0371047 -3.42811 176.294 180 -180
